<svg fill="none" height="15" viewBox="0 0 15 15" width="15" xmlns="http://www.w3.org/2000/svg"><path d="m4.5 7h-.5v1h.5zm6 1h.5v-1h-.5zm-6-4h-.5v1h.5zm2 1h.5v-1h-.5zm4-4.5.3536-.353553-.1465-.146447h-.2071zm3 3h.5v-.20711l-.1464-.14644zm-5.5 7.5-.35355.3536zm-.5.5.22361.4472.04032-.0201.03607-.0271zm-3-3.5h6v-1h-6zm0-3h2v-1h-2zm8 9h-10v1h10zm-10.5-.5v-12h-1v12zm.5-12.5h8v-1h-8zm10.5 2.5v10h1v-10zm-2.8536-2.646447 3 2.999997.7072-.7071-3-3.000003zm-7.6464 13.146447c-.27614 0-.5-.2239-.5-.5h-1c0 .8284.67157 1.5 1.5 1.5zm10 1c.8284 0 1.5-.6716 1.5-1.5h-1c0 .2761-.2239.5-.5.5zm-10.5-13.5c0-.27614.22386-.5.5-.5v-1c-.82843 0-1.5.671574-1.5 1.5zm3.47434 10.1581c.11114-.3334.42653-.6417.83039-.7502.37658-.1012.86129-.0348 1.34172.4457l.7071-.7072c-.71956-.71952-1.56819-.90311-2.30828-.70428-.71281.19148-1.29742.73318-1.51961 1.39978zm2.17211-.3045c.03263.0326.05822.0618.07814.0875l.78967-.6136c-.04818-.062-.10193-.1223-.16071-.1811zm.07814.0875c.07829.1007.06082.1321.06337.1105.00171-.0146.00644.008-.05371.0627-.06061.0551-.15888.1155-.28975.1686-.12818.0521-.26774.089-.39407.1081-.13354.0202-.21932.0156-.25009.0095-.01727-.0034.01789-.0004.06889.0371.06476.0476.14589.148.15234.2926.00271.061-.00953.1086-.02045.138-.01064.0286-.02155.0443-.02312.0465-.00156.0022.01499-.0205.07232-.0669.11383-.092.32343-.2257.67329-.4006l-.44722-.8944c-.37729.1886-.65983.3598-.85478.5174-.09705.0785-.18905.1668-.25976.2666-.06739.0952-.1478.247-.13929.4379.00963.2161.12688.3749.25425.4686.11361.0835.23786.1201.32972.1382.18749.0371.40011.0275.59349-.0017.38041-.0576.87229-.2213 1.207-.5257.17437-.1586.33891-.3867.37409-.6857.03602-.3061-.07432-.5931-.26685-.8409zm.07541.4589c.18368-.1378.3564-.2369.51798-.3068l-.39711-.9178c-.24012.1039-.48036.2442-.72087.4246zm.51798-.3068c.65093-.2817 1.23128-.1328 1.82642.1506.1494.0712.2954.1488.4433.2288.1441.078.2963.1619.4411.2352.275.1392.6177.2922.9712.2922v-1c-.0935 0-.2477-.0468-.5196-.1844-.1286-.0651-.2623-.1388-.4166-.2224-.1506-.0815-.3155-.1694-.4894-.2522-.6984-.3326-1.61136-.6165-2.65353-.1656z" fill="#384252"/></svg>